<?xml version="1.0" encoding="utf-8"?>
<svg version="1.1" id="Layer_1" xmlns="http://www.w3.org/2000/svg" xmlns:xlink="http://www.w3.org/1999/xlink" x="0px" y="0px"
     viewBox="0 0 512 512" style="enable-background:new 0 0 512 512;" xml:space="preserve">
<style type="text/css">
	.st0{fill:#EFB121;}
	.st1{fill:#60A244;}
	.st2{fill:#F4F4F4;}
</style>
    <g>
	<path class="st0" d="M255.4,402.7c96.8-55.2,135.3-126.3,150.6-175.8l2.4-51.3c0.7-11.5-8.5-21.3-20.1-21.3H150.2
		c-11.9,0-21.2,10.3-20,22.1l3,36.1c5.4-7.5,10.6-13.5,15-16c0,0-7.3,18.3-12.5,45.9l14.6,175.4c0.5,6.2,5.7,10.9,11.9,10.9H385
		c6.4,0,11.6-5,11.9-11.3l5.5-115.7C348.9,362.2,255.4,402.7,255.4,402.7z"/>
        <path class="st1" d="M333.2,192.4l-3.4-64.8c-2-24.7-22.2-43.6-47-43.9l-25.7-0.3c-0.2,0-0.4,0-0.6,0c-24.6,0-45.5,19.1-47.6,43.7
		l-3.6,65.3c-0.3,3.9,2.6,7.3,6.4,7.6c0.2,0,0.4,0,0.6,0c3.6,0,6.7-2.8,7-6.5l3.6-65.3c1.5-17.3,16-30.8,33.4-30.8
		c0.2,0,0.3,0,0.5,0l25.7,0.3c17.5,0.2,31.7,13.5,33.1,30.9l3.4,64.8c0.3,3.7,3.3,6.5,7,6.5c0.2,0,0.4,0,0.6,0
		C330.6,199.7,333.5,196.3,333.2,192.4z"/>
        <g>
		<path class="st1" d="M360.3,328.9c-32.9,33.8-69.6,58.8-105,73.8c22.7-5.9,46.1-14.7,69.2-26.3
			c106.1-53.1,167.3-145.8,136.6-207.1c-3.9-7.8-9.2-14.8-15.5-20.8C447.9,201.5,417.2,270.5,360.3,328.9z"/>
            <path class="st1" d="M77,361.6c10.4,20.7,30,35.2,55.4,43.2c-3.9-2.5-7.5-5.4-10.8-8.7c-41.5-40.4-28.4-123.6,26.7-199.7
			C84.3,248.5,53.4,314.3,77,361.6z"/>
	</g>
        <g>
		<path class="st2" d="M284.5,356.6c-4.3,0-8-2.5-9.7-6.5l-21.4-50.5l-47.6-7.8c-4.8-0.8-8.4-4.6-8.8-9.4c-0.5-4.9,2.3-9.2,6.9-10.9
			l103-38.1c1.2-0.4,2.4-0.7,3.7-0.7c3.2,0,6.3,1.5,8.3,4.1c2,2.6,2.7,5.9,1.9,9.1l-26.1,102.8C293.5,353.4,289.4,356.6,284.5,356.6
			L284.5,356.6z"/>
	</g>
        <path class="st1" d="M142.5,414.2c0,0-92.9-12.4-94.2-88C48.3,326.2,8.7,424.1,142.5,414.2z"/>
</g>
</svg>
